<svg xmlns="http://www.w3.org/2000/svg" viewBox="0 0 32 32">
  <rect width="32" height="32" rx="3" fill="#1a1a2e"/>
  <!-- MC monogram: M in parchment, C in terracotta, sharing the vertical stroke -->
  <path d="M4.5 24V8H7l4.5 10.5L16 8h2.5v16H16V13.5L12 22h-1L7 13.5V24H4.5z" fill="#f5f0e8"/>
  <path d="M19 12.2C19.6 10.3 21 9 23.2 9c2.6 0 4.3 1.8 4.3 4v6c0 2.2-1.7 4-4.3 4-2.2 0-3.6-1.3-4.2-3.2l2-.6c.3 1 1 1.8 2.2 1.8 1.2 0 2.1-.9 2.1-2V13c0-1.1-.9-2-2.1-2-1.2 0-1.9.8-2.2 1.8L19 12.2z" fill="#c45d3e"/>
</svg>
